# Blender v2.82 (sub 7) OBJ File: ''
# www.blender.org
o Cube
v -1.000000 -1.000000 1.797926
v -1.000000 1.000000 1.797926
v -1.000000 -1.000000 -1.797926
v -1.000000 1.000000 -1.797926
v 1.000000 -1.000000 1.797926
v 1.000000 1.000000 1.797926
v 1.000000 -1.000000 -1.797926
v 1.000000 1.000000 -1.797926
v -0.000000 0.960872 0.775704
v -0.000000 2.235278 3.191164
v 0.083141 0.953630 0.779525
v 0.083141 2.228036 3.194985
v 0.163088 0.932181 0.790842
v 0.163088 2.206586 3.206301
v 0.236767 0.897349 0.809219
v 0.236767 2.171755 3.224679
v 0.301347 0.850474 0.833951
v 0.301347 2.124880 3.249410
v 0.354346 0.793356 0.864086
v 0.354346 2.067762 3.279546
v 0.393728 0.728191 0.898467
v 0.393728 2.002597 3.313927
v 0.417980 0.657482 0.935774
v 0.417980 1.931888 3.351233
v 0.426169 0.583948 0.974571
v 0.426169 1.858354 3.390030
v 0.417980 0.510414 1.013367
v 0.417980 1.784820 3.428827
v 0.393728 0.439705 1.050673
v 0.393728 1.714111 3.466133
v 0.354346 0.374540 1.085055
v 0.354346 1.648946 3.500515
v 0.301347 0.317422 1.115190
v 0.301347 1.591828 3.530650
v 0.236767 0.270547 1.139922
v 0.236767 1.544953 3.555382
v 0.163088 0.235715 1.158299
v 0.163088 1.510121 3.573759
v 0.083141 0.214266 1.169616
v 0.083141 1.488672 3.585076
v -0.000000 0.207024 1.173437
v -0.000000 1.481430 3.588897
v -0.083142 0.214266 1.169616
v -0.083142 1.488672 3.585076
v -0.163088 0.235716 1.158299
v -0.163088 1.510121 3.573759
v -0.236767 0.270547 1.139922
v -0.236767 1.544953 3.555382
v -0.301347 0.317423 1.115190
v -0.301347 1.591828 3.530650
v -0.354347 0.374540 1.085055
v -0.354347 1.648946 3.500515
v -0.393729 0.439706 1.050673
v -0.393729 1.714112 3.466133
v -0.417980 0.510414 1.013367
v -0.417980 1.784820 3.428827
v -0.426169 0.583948 0.974570
v -0.426169 1.858354 3.390030
v -0.417980 0.657483 0.935773
v -0.417980 1.931889 3.351233
v -0.393728 0.728191 0.898467
v -0.393728 2.002597 3.313927
v -0.354346 0.793356 0.864086
v -0.354346 2.067762 3.279546
v -0.301346 0.850474 0.833950
v -0.301346 2.124880 3.249410
v -0.236766 0.897349 0.809219
v -0.236766 2.171755 3.224679
v -0.163087 0.932181 0.790841
v -0.163087 2.206587 3.206301
v -0.083141 0.953630 0.779525
v -0.083141 2.228036 3.194985
vt 0.625000 0.000000
vt 0.375000 0.250000
vt 0.375000 0.000000
vt 0.625000 0.250000
vt 0.375000 0.500000
vt 0.625000 0.500000
vt 0.375000 0.750000
vt 0.625000 0.750000
vt 0.375000 1.000000
vt 0.125000 0.750000
vt 0.125000 0.500000
vt 0.875000 0.500000
vt 1.000000 0.500000
vt 0.968750 1.000000
vt 0.968750 0.500000
vt 0.937500 1.000000
vt 0.937500 0.500000
vt 0.906250 1.000000
vt 0.906250 0.500000
vt 0.875000 1.000000
vt 0.875000 0.500000
vt 0.843750 1.000000
vt 0.843750 0.500000
vt 0.812500 1.000000
vt 0.812500 0.500000
vt 0.781250 1.000000
vt 0.781250 0.500000
vt 0.750000 1.000000
vt 0.750000 0.500000
vt 0.718750 1.000000
vt 0.718750 0.500000
vt 0.687500 1.000000
vt 0.687500 0.500000
vt 0.656250 1.000000
vt 0.656250 0.500000
vt 0.625000 1.000000
vt 0.625000 0.500000
vt 0.593750 1.000000
vt 0.593750 0.500000
vt 0.562500 1.000000
vt 0.562500 0.500000
vt 0.531250 1.000000
vt 0.531250 0.500000
vt 0.500000 1.000000
vt 0.500000 0.500000
vt 0.468750 0.500000
vt 0.468750 1.000000
vt 0.437500 0.500000
vt 0.437500 1.000000
vt 0.406250 0.500000
vt 0.406250 1.000000
vt 0.375000 0.500000
vt 0.375000 1.000000
vt 0.343750 0.500000
vt 0.343750 1.000000
vt 0.312500 0.500000
vt 0.312500 1.000000
vt 0.281250 0.500000
vt 0.281250 1.000000
vt 0.250000 0.500000
vt 0.250000 1.000000
vt 0.218750 0.500000
vt 0.218750 1.000000
vt 0.187500 0.500000
vt 0.187500 1.000000
vt 0.156250 0.500000
vt 0.156250 1.000000
vt 0.125000 0.500000
vt 0.125000 1.000000
vt 0.093750 0.500000
vt 0.093750 1.000000
vt 0.062500 0.500000
vt 0.419706 0.419706
vt 0.383337 0.449553
vt 0.419706 0.080294
vt 0.062500 1.000000
vt 0.031250 0.500000
vt 0.031250 1.000000
vt 0.000000 0.500000
vt 0.616663 0.449553
vt 0.658156 0.471731
vt 0.616663 0.050447
vt 0.625000 1.000000
vt 0.875000 0.750000
vt 1.000000 1.000000
vt 0.341844 0.471731
vt 0.296822 0.485388
vt 0.296822 0.014612
vt 0.250000 0.490000
vt 0.250000 0.010000
vt 0.203179 0.485389
vt 0.203178 0.014612
vt 0.158156 0.471731
vt 0.158156 0.028269
vt 0.116663 0.449553
vt 0.080295 0.419706
vt 0.116663 0.050447
vt 0.050447 0.383337
vt 0.080294 0.080294
vt 0.028269 0.341844
vt 0.050447 0.116663
vt 0.014612 0.296822
vt 0.014611 0.203179
vt 0.010000 0.250000
vt 0.028269 0.158156
vt 0.341844 0.028269
vt 0.383337 0.050447
vt 0.449553 0.116663
vt 0.471731 0.158156
vt 0.449553 0.383337
vt 0.485388 0.203178
vt 0.485388 0.296822
vt 0.490000 0.250000
vt 0.471731 0.341844
vt 0.000000 1.000000
vt 0.703179 0.485389
vt 0.750000 0.490000
vt 0.750000 0.010000
vt 0.796822 0.485388
vt 0.796822 0.014612
vt 0.841844 0.471731
vt 0.883337 0.449553
vt 0.841844 0.028269
vt 0.919706 0.419706
vt 0.919706 0.080294
vt 0.949553 0.383337
vt 0.949553 0.116663
vt 0.971731 0.341844
vt 0.985388 0.296822
vt 0.971731 0.158156
vt 0.990000 0.250000
vt 0.985388 0.203178
vt 0.883337 0.050447
vt 0.703178 0.014612
vt 0.658156 0.028269
vt 0.580294 0.080294
vt 0.580295 0.419706
vt 0.550447 0.116663
vt 0.550447 0.383337
vt 0.528269 0.158156
vt 0.514611 0.203179
vt 0.528269 0.341844
vt 0.510000 0.250000
vt 0.514612 0.296822
vn -1.0000 0.0000 0.0000
vn 0.0000 0.0000 -1.0000
vn 1.0000 0.0000 0.0000
vn 0.0000 0.0000 1.0000
vn 0.0000 -1.0000 0.0000
vn 0.0000 1.0000 0.0000
vn 0.0980 0.8802 -0.4644
vn 0.2903 0.8464 -0.4465
vn 0.4714 0.7800 -0.4115
vn 0.6344 0.6837 -0.3607
vn 0.7730 0.5611 -0.2960
vn 0.8819 0.4169 -0.2200
vn 0.9569 0.2567 -0.1355
vn 0.9952 0.0867 -0.0457
vn 0.9952 -0.0867 0.0457
vn 0.9569 -0.2567 0.1355
vn 0.8819 -0.4169 0.2200
vn 0.7730 -0.5611 0.2960
vn 0.6344 -0.6837 0.3607
vn 0.4714 -0.7800 0.4115
vn 0.2903 -0.8464 0.4465
vn 0.0980 -0.8802 0.4644
vn -0.0980 -0.8802 0.4644
vn -0.2903 -0.8464 0.4465
vn -0.4714 -0.7800 0.4115
vn -0.6344 -0.6837 0.3607
vn -0.7730 -0.5611 0.2960
vn -0.8819 -0.4169 0.2200
vn -0.9569 -0.2567 0.1355
vn -0.9952 -0.0867 0.0457
vn -0.9952 0.0867 -0.0457
vn -0.9569 0.2567 -0.1355
vn -0.8819 0.4169 -0.2200
vn -0.7730 0.5611 -0.2960
vn -0.6344 0.6837 -0.3607
vn -0.4714 0.7800 -0.4115
vn 0.0000 0.4666 0.8844
vn -0.2903 0.8464 -0.4465
vn -0.0980 0.8802 -0.4644
vn 0.0000 -0.4666 -0.8844
vn 0.0001 0.4666 0.8844
s off
f 2/1/1 3/2/1 1/3/1
f 4/4/2 7/5/2 3/2/2
f 8/6/3 5/7/3 7/5/3
f 6/8/4 1/9/4 5/7/4
f 7/5/5 1/10/5 3/11/5
f 4/12/6 6/8/6 8/6/6
f 9/13/7 12/14/7 11/15/7
f 11/15/8 14/16/8 13/17/8
f 13/17/9 16/18/9 15/19/9
f 15/19/10 18/20/10 17/21/10
f 17/21/11 20/22/11 19/23/11
f 19/23/12 22/24/12 21/25/12
f 21/25/13 24/26/13 23/27/13
f 23/27/14 26/28/14 25/29/14
f 25/29/15 28/30/15 27/31/15
f 27/31/16 30/32/16 29/33/16
f 29/33/17 32/34/17 31/35/17
f 31/35/18 34/36/18 33/37/18
f 33/37/19 36/38/19 35/39/19
f 35/39/20 38/40/20 37/41/20
f 37/41/21 40/42/21 39/43/21
f 39/43/22 42/44/22 41/45/22
f 42/44/23 43/46/23 41/45/23
f 44/47/24 45/48/24 43/46/24
f 46/49/25 47/50/25 45/48/25
f 48/51/26 49/52/26 47/50/26
f 50/53/27 51/54/27 49/52/27
f 52/55/28 53/56/28 51/54/28
f 54/57/29 55/58/29 53/56/29
f 56/59/30 57/60/30 55/58/30
f 58/61/31 59/62/31 57/60/31
f 60/63/32 61/64/32 59/62/32
f 62/65/33 63/66/33 61/64/33
f 64/67/34 65/68/34 63/66/34
f 66/69/35 67/70/35 65/68/35
f 68/71/36 69/72/36 67/70/36
f 18/73/37 16/74/37 34/75/37
f 70/76/38 71/77/38 69/72/38
f 72/78/39 9/79/39 71/77/39
f 67/80/40 69/81/40 47/82/40
f 2/1/1 4/4/1 3/2/1
f 4/4/2 8/6/2 7/5/2
f 8/6/3 6/8/3 5/7/3
f 6/8/4 2/83/4 1/9/4
f 7/5/5 5/7/5 1/10/5
f 4/12/6 2/84/6 6/8/6
f 9/13/7 10/85/7 12/14/7
f 11/15/8 12/14/8 14/16/8
f 13/17/9 14/16/9 16/18/9
f 15/19/10 16/18/10 18/20/10
f 17/21/11 18/20/11 20/22/11
f 19/23/12 20/22/12 22/24/12
f 21/25/13 22/24/13 24/26/13
f 23/27/14 24/26/14 26/28/14
f 25/29/15 26/28/15 28/30/15
f 27/31/16 28/30/16 30/32/16
f 29/33/17 30/32/17 32/34/17
f 31/35/18 32/34/18 34/36/18
f 33/37/19 34/36/19 36/38/19
f 35/39/20 36/38/20 38/40/20
f 37/41/21 38/40/21 40/42/21
f 39/43/22 40/42/22 42/44/22
f 42/44/23 44/47/23 43/46/23
f 44/47/24 46/49/24 45/48/24
f 46/49/25 48/51/25 47/50/25
f 48/51/26 50/53/26 49/52/26
f 50/53/27 52/55/27 51/54/27
f 52/55/28 54/57/28 53/56/28
f 54/57/29 56/59/29 55/58/29
f 56/59/30 58/61/30 57/60/30
f 58/61/31 60/63/31 59/62/31
f 60/63/32 62/65/32 61/64/32
f 62/65/33 64/67/33 63/66/33
f 64/67/34 66/69/34 65/68/34
f 66/69/35 68/71/35 67/70/35
f 68/71/36 70/76/36 69/72/36
f 14/86/37 12/87/37 40/88/37
f 12/87/37 10/89/37 42/90/37
f 10/89/37 72/91/37 44/92/37
f 72/91/37 70/93/37 46/94/37
f 70/93/37 68/95/37 46/94/37
f 68/95/37 66/96/37 48/97/37
f 46/94/37 68/95/37 48/97/37
f 66/96/37 64/98/37 50/99/37
f 64/98/37 62/100/37 52/101/37
f 50/99/37 64/98/37 52/101/37
f 62/100/37 60/102/37 56/103/37
f 60/102/37 58/104/37 56/103/37
f 56/103/37 54/105/37 62/100/37
f 54/105/37 52/101/37 62/100/37
f 50/99/37 48/97/37 66/96/37
f 46/94/37 44/92/37 72/91/37
f 44/92/37 42/90/37 10/89/37
f 42/90/37 40/88/37 12/87/37
f 40/88/37 38/106/37 14/86/37
f 38/106/37 36/107/37 14/86/37
f 36/107/37 34/75/37 16/74/37
f 14/86/37 36/107/37 16/74/37
f 34/75/37 32/108/37 18/73/37
f 32/108/37 30/109/37 20/110/37
f 18/73/37 32/108/37 20/110/37
f 30/109/37 28/111/37 24/112/37
f 28/111/41 26/113/41 24/112/41
f 24/112/37 22/114/37 30/109/37
f 22/114/37 20/110/37 30/109/37
f 70/76/38 72/78/38 71/77/38
f 72/78/39 10/115/39 9/79/39
f 71/116/40 9/117/40 41/118/40
f 9/117/40 11/119/40 39/120/40
f 11/119/40 13/121/40 39/120/40
f 13/121/40 15/122/40 37/123/40
f 39/120/40 13/121/40 37/123/40
f 15/122/40 17/124/40 33/125/40
f 17/124/40 19/126/40 31/127/40
f 19/126/40 21/128/40 31/127/40
f 21/128/40 23/129/40 29/130/40
f 31/127/40 21/128/40 29/130/40
f 23/129/40 25/131/40 27/132/40
f 27/132/40 29/130/40 23/129/40
f 31/127/40 33/125/40 17/124/40
f 33/125/40 35/133/40 15/122/40
f 35/133/40 37/123/40 15/122/40
f 39/120/40 41/118/40 9/117/40
f 41/118/40 43/134/40 71/116/40
f 43/134/40 45/135/40 71/116/40
f 45/135/40 47/82/40 69/81/40
f 71/116/40 45/135/40 69/81/40
f 47/82/40 49/136/40 65/137/40
f 49/136/40 51/138/40 63/139/40
f 51/138/40 53/140/40 63/139/40
f 53/140/40 55/141/40 61/142/40
f 63/139/40 53/140/40 61/142/40
f 55/141/40 57/143/40 59/144/40
f 59/144/40 61/142/40 55/141/40
f 63/139/40 65/137/40 49/136/40
f 65/137/40 67/80/40 47/82/40
