# Blender v2.81 (sub 16) OBJ File: ''
# www.blender.org
o Cube
v -0.841577 -1.046438 1.844463
v -1.447639 1.643262 0.388708
v -1.000000 -1.000000 -1.000000
v -0.974864 0.667699 -3.111182
v 1.926255 0.861822 2.594116
v 1.638705 1.345459 -0.098436
v 1.000000 -1.000000 -1.000000
v -0.436867 1.373929 -1.370258
vt 0.625000 0.000000
vt 0.375000 0.250000
vt 0.375000 0.000000
vt 0.625000 0.500000
vt 0.375000 0.500000
vt 0.625000 0.750000
vt 0.375000 0.750000
vt 0.375000 1.000000
vt 0.125000 0.750000
vt 0.125000 0.500000
vt 0.875000 0.750000
vt 0.625000 1.000000
vt 0.625000 0.250000
vt 0.875000 0.500000
vn -0.9799 -0.1930 0.0514
vn 0.0000 -0.1541 -0.9881
vn 0.9676 -0.2093 -0.1409
vn -0.5925 0.7795 0.2033
vn 0.0000 -0.9999 -0.0163
vn 0.0788 0.9912 -0.1065
vn 0.5156 0.1815 -0.8374
vn 0.1819 0.4994 0.8470
vn -0.9883 -0.1139 -0.1017
vn 0.9483 -0.2545 -0.1898
vn 0.4849 -0.8213 0.3005
vn -0.2628 0.9196 -0.2918
s off
f 2/1/1 3/2/1 1/3/1
f 3/2/2 8/4/2 7/5/2
f 7/5/3 6/6/3 5/7/3
f 5/7/4 6/6/4 1/8/4
f 7/5/5 1/9/5 3/10/5
f 8/4/6 2/11/6 6/6/6
f 6/6/7 7/5/7 8/4/7
f 1/8/8 6/6/8 2/12/8
f 2/1/9 4/13/9 3/2/9
f 3/2/10 4/13/10 8/4/10
f 7/5/11 5/7/11 1/9/11
f 8/4/12 4/14/12 2/11/12
